<svg aria-hidden="true" style="position: absolute; width: 0; height: 0; overflow: hidden;" version="1.1" xmlns="http://www.w3.org/2000/svg" xmlns:xlink="http://www.w3.org/1999/xlink">
  <defs>
    <symbol id="icon-close" viewBox="0 0 32 32">
      <path d="M2.286 32c-0.594 0-1.166-0.229-1.623-0.663-0.891-0.891-0.891-2.331 0-3.223l27.429-27.451c0.891-0.891 2.331-0.891 3.223 0s0.891 2.331 0 3.223l-27.406 27.451c-0.457 0.457-1.029 0.663-1.623 0.663z"></path>
      <path d="M29.714 32c-0.594 0-1.166-0.229-1.623-0.663l-27.429-27.429c-0.891-0.891-0.891-2.354 0-3.246s2.354-0.891 3.246 0l27.429 27.429c0.891 0.891 0.891 2.331 0 3.223-0.457 0.457-1.029 0.663-1.623 0.663z"></path>
    </symbol>
    <symbol id="icon-hourglass-02" viewBox="0 0 23 32">
      <path d="M20.596 32h-17.92c-1.469 0-2.676-1.193-2.676-2.676 0-4.291 1.673-8.335 4.713-11.36l1.775-1.775c0.102-0.102 0.16-0.16 0.204-0.204-0.044 0-0.102-0.073-0.204-0.175l-1.775-1.775c-3.040-3.040-4.713-7.069-4.713-11.36 0-1.484 1.193-2.676 2.676-2.676h17.935c1.469 0 2.676 1.193 2.676 2.676 0 4.291-1.673 8.335-4.713 11.36l-1.775 1.775c-0.102 0.102-0.16 0.16-0.204 0.218 0.044 0 0.102 0.058 0.189 0.16l1.789 1.789c3.040 3.040 4.713 7.069 4.713 11.36 0 1.469-1.193 2.676-2.676 2.676zM2.909 29.091h17.455c-0.058-3.433-1.425-6.647-3.855-9.076l-1.775-1.775c-0.247-0.262-0.364-0.378-0.465-0.495-0.771-1.033-0.771-2.458 0-3.491 0.087-0.131 0.204-0.247 0.436-0.48l1.789-1.789c2.429-2.429 3.796-5.644 3.855-9.076h-17.44c0.058 3.433 1.425 6.647 3.855 9.076l1.775 1.775c0.247 0.247 0.378 0.378 0.465 0.509 0.771 1.033 0.771 2.458 0 3.476-0.087 0.116-0.218 0.262-0.465 0.509l-1.775 1.775c-2.429 2.429-3.796 5.644-3.855 9.076zM20.596 2.909v0 0z"></path>
    </symbol>
    <symbol id="icon-arrow-narrow-right" viewBox="0 0 41 32">
      <path d="M38.857 18.286h-36.571c-1.257 0-2.286-1.029-2.286-2.286s1.029-2.286 2.286-2.286h36.571c1.257 0 2.286 1.029 2.286 2.286s-1.029 2.286-2.286 2.286z"></path>
      <path d="M25.143 32c-0.594 0-1.166-0.229-1.623-0.663-0.891-0.891-0.891-2.331 0-3.223l12.091-12.091-12.091-12.114c-0.891-0.891-0.891-2.331 0-3.223s2.331-0.891 3.223 0l13.714 13.714c0.891 0.891 0.891 2.331 0 3.223l-13.714 13.714c-0.457 0.457-1.029 0.663-1.623 0.663z"></path>
    </symbol>
    <symbol id="icon-icon-1" viewBox="0 0 41 32">
      <path d="M35.5 32h-30c-1.46 0-2.84-0.58-3.88-1.62s-1.62-2.42-1.62-3.88v-21c0-1.46 0.58-2.86 1.62-3.88 1.040-1.040 2.42-1.62 3.88-1.62h30c1.48 0 2.86 0.58 3.88 1.62 1.040 1.040 1.62 2.42 1.62 3.88v21c0 1.46-0.58 2.84-1.62 3.88s-2.42 1.62-3.88 1.62zM2 10.24v16.26c0 0.94 0.36 1.82 1.020 2.48s1.54 1.020 2.48 1.020h30c0.94 0 1.82-0.36 2.48-1.020s1.020-1.54 1.020-2.48v-16.28c-0.2 0.16-0.4 0.3-0.62 0.44l-15 9.24c-1.74 1.080-4.020 1.080-5.76 0l-15-9.22c-0.22-0.14-0.42-0.28-0.62-0.44zM2 5.98c0 0.6 0.16 1.18 0.44 1.7 0.3 0.52 0.72 0.96 1.22 1.28l15 9.22c1.1 0.68 2.56 0.68 3.68 0l15-9.24c0.5-0.32 0.92-0.76 1.22-1.28 0.28-0.52 0.44-1.12 0.44-1.7v-0.48c0-0.94-0.36-1.82-1.020-2.48s-1.54-1.020-2.48-1.020h-30c-0.94 0-1.82 0.36-2.48 1.020s-1.020 1.54-1.020 2.48v0.48z"></path>
    </symbol>
    <symbol id="icon-icon" viewBox="0 0 32 32">
      <path d="M27.707 32h-3.512c-13.346 0-24.195-10.849-24.195-24.195v-3.512c0-1.139 0.453-2.232 1.264-3.028 0.812-0.812 1.889-1.264 3.028-1.264h2.139c0.562 0 1.124 0.187 1.561 0.531s0.765 0.843 0.905 1.389l1.733 6.899c0.25 0.999-0.125 2.029-0.937 2.638l-2.014 1.514c-0.328 0.25-0.453 0.64-0.328 0.999 0.89 2.435 2.341 4.683 4.168 6.525 1.826 1.826 4.090 3.278 6.525 4.168 0.343 0.125 0.749 0 0.999-0.328l1.514-2.014c0.609-0.812 1.655-1.186 2.638-0.937l6.899 1.733c1.124 0.281 1.92 1.296 1.92 2.466v2.139c0 1.139-0.453 2.217-1.264 3.028s-1.889 1.264-3.028 1.264zM4.293 1.561c-0.734 0-1.421 0.281-1.936 0.796s-0.796 1.202-0.796 1.936v3.512c0 12.488 10.146 22.634 22.634 22.634h3.512c0.734 0 1.421-0.281 1.936-0.796s0.796-1.202 0.796-1.936v-2.139c0-0.453-0.297-0.843-0.734-0.952l-6.899-1.733c-0.39-0.094-0.78 0.047-1.015 0.359l-1.514 2.014c-0.656 0.874-1.779 1.233-2.779 0.859-2.654-0.968-5.089-2.544-7.087-4.527-1.998-1.998-3.559-4.433-4.527-7.087-0.375-0.999-0.031-2.123 0.859-2.779l2.014-1.514c0.312-0.234 0.453-0.64 0.359-1.015l-1.733-6.899c-0.047-0.203-0.172-0.406-0.343-0.531s-0.39-0.203-0.593-0.203h-2.139z"></path>
    </symbol>
    <symbol id="icon-icon-2" viewBox="0 0 26 32">
      <path d="M12.962 18.633c-1.491 0-2.949-0.599-4.002-1.669-1.069-1.069-1.669-2.495-1.669-4.002s0.583-2.933 1.669-4.002c2.139-2.139 5.882-2.139 8.020 0 1.053 1.053 1.669 2.511 1.669 4.002s-0.599 2.949-1.669 4.002-2.511 1.669-4.002 1.669zM12.962 8.911c-1.086 0-2.106 0.421-2.868 1.183s-1.183 1.782-1.183 2.868 0.421 2.106 1.183 2.868c1.507 1.507 4.213 1.507 5.736 0 0.762-0.762 1.183-1.798 1.183-2.868s-0.437-2.106-1.183-2.868c-0.762-0.762-1.782-1.183-2.868-1.183z"></path>
      <path d="M12.962 32c-0.13 0-0.275-0.032-0.389-0.097-0.518-0.275-12.573-7.016-12.573-18.941 0-3.467 1.345-6.724 3.791-9.171s5.703-3.791 9.171-3.791 6.724 1.345 9.171 3.791c2.447 2.447 3.791 5.703 3.791 9.171 0 11.909-12.055 18.649-12.573 18.941-0.113 0.065-0.259 0.097-0.389 0.097zM12.962 1.62c-3.030 0-5.882 1.183-8.020 3.322s-3.322 4.99-3.322 8.020c0 9.819 9.3 16.041 11.342 17.288 2.042-1.248 11.342-7.486 11.342-17.288 0-3.030-1.183-5.882-3.322-8.020s-4.99-3.322-8.020-3.322z"></path>
    </symbol>
    <symbol id="icon-Icon-3" viewBox="0 0 53 32">
      <path d="M26.635 32l-25.532-25.493c-1.484-1.484-1.484-3.919 0-5.403s3.919-1.484 5.403 0l20.128 20.128 20.128-20.128c1.484-1.484 3.881-1.484 5.365 0s1.484 3.881 0 5.365l-25.532 25.532z"></path>
    </symbol>
    <symbol id="icon-user-01" viewBox="0 0 29 32">
      <path d="M27.2 32c-0.88 0-1.6-0.72-1.6-1.6 0-2 0-3.12-0.208-3.792-0.464-1.536-1.664-2.736-3.2-3.2-0.688-0.208-1.792-0.208-3.792-0.208h-8c-2 0-3.12 0-3.792 0.208-1.536 0.464-2.736 1.664-3.2 3.2-0.208 0.688-0.208 1.792-0.208 3.792 0 0.88-0.72 1.6-1.6 1.6s-1.6-0.72-1.6-1.6c0-2.384 0-3.584 0.352-4.72 0.784-2.56 2.768-4.56 5.328-5.328 1.136-0.336 2.336-0.336 4.72-0.336h8c2.384 0 3.584 0 4.72 0.336 2.56 0.784 4.56 2.768 5.328 5.328 0.336 1.136 0.336 2.336 0.336 4.72 0 0.88-0.72 1.6-1.6 1.6z"></path>
      <path d="M14.4 17.6c-4.848 0-8.8-3.952-8.8-8.8s3.952-8.8 8.8-8.8 8.8 3.952 8.8 8.8-3.952 8.8-8.8 8.8zM14.4 3.2c-3.088 0-5.6 2.512-5.6 5.6s2.512 5.6 5.6 5.6 5.6-2.512 5.6-5.6-2.512-5.6-5.6-5.6z"></path>
    </symbol>
    <symbol id="icon-message-chat-circle" viewBox="0 0 32 32">
      <path d="M1.455 32c-0.407 0-0.785-0.175-1.076-0.465-0.32-0.349-0.451-0.829-0.349-1.295l0.887-4.015c0.029-0.145 0.058-0.233 0.058-0.305-0.015-0.029-0.058-0.16-0.131-0.364-0.32-0.975-0.48-1.978-0.48-2.996 0-3.825 2.24-7.142 5.455-8.625-0.015-0.276-0.029-0.553-0.029-0.829 0.029-7.229 5.935-13.105 13.193-13.105s13.164 5.876 13.164 13.091c0 1.6-0.291 3.156-0.858 4.64-0.058 0.175-0.102 0.262-0.116 0.32 0 0.015 0.015 0.102 0.044 0.218l0.582 4.756c0.087 0.669 0.145 1.193-0.116 1.745-0.218 0.495-0.625 0.873-1.12 1.091-0.553 0.247-1.076 0.175-1.731 0.073l-4.64-0.684c-0.131-0.015-0.218-0.029-0.276-0.044-0.029 0.015-0.116 0.058-0.291 0.116-1.731 0.655-3.578 0.931-5.425 0.815-1.396 3.433-4.713 5.847-8.567 5.847-1.033 0-2.051-0.175-3.025-0.524-0.204-0.073-0.305-0.116-0.393-0.131 0 0-0.087 0.029-0.218 0.044l-4.364 0.596s-0.131 0-0.204 0zM6.269 28.451c0.233 0 0.349 0 0.553 0.058 0.131 0.029 0.335 0.087 0.713 0.218 0.698 0.247 1.396 0.364 2.095 0.364 3.505 0 6.356-2.938 6.356-6.545s-2.851-6.545-6.356-6.545-6.356 2.938-6.356 6.545c0 0.713 0.116 1.425 0.335 2.095 0.145 0.465 0.218 0.698 0.233 0.844 0.029 0.218 0.044 0.393 0.029 0.611 0 0.175-0.044 0.364-0.131 0.742l-0.436 1.978 2.284-0.305c0.335-0.044 0.509-0.058 0.655-0.058zM18.88 23.273c1.265 0 2.545-0.204 3.724-0.655 0.378-0.145 0.582-0.204 0.727-0.233 0.364-0.073 0.465-0.116 1.28 0l4.262 0.625-0.538-4.378c-0.044-0.349-0.058-0.524-0.058-0.669 0-0.175 0.029-0.349 0.073-0.553 0.029-0.145 0.087-0.32 0.218-0.684 0.451-1.178 0.669-2.4 0.669-3.636 0-5.615-4.596-10.182-10.255-10.182s-10.255 4.567-10.255 10.182v0.044c0.305-0.029 0.611-0.044 0.916-0.044 5.105 0 9.265 4.247 9.265 9.455 0 0.247 0 0.48-0.029 0.727z"></path>
    </symbol>
    <symbol id="icon-brush-01" viewBox="0 0 32 32">
      <path d="M17.379 21.614c-0.384 0-0.752-0.148-1.047-0.428l-5.577-5.577c-0.575-0.575-0.575-1.505 0-2.080s1.505-0.575 2.080 0l5.577 5.577c0.575 0.575 0.575 1.505 0 2.080-0.295 0.295-0.664 0.428-1.047 0.428z"></path>
      <path d="M4.647 32c-0.575 0-1.151 0-1.711-0.029-0.502 0-0.988-0.029-1.461-0.029-0.516 0-0.988-0.266-1.254-0.708s-0.295-0.988-0.059-1.446c0.531-1.033 0.472-2.346 0.413-3.718-0.074-1.844-0.162-3.924 1.357-5.459 1.254-1.254 2.921-1.947 4.692-1.947s3.438 0.693 4.692 1.947c1.254 1.254 1.947 2.921 1.947 4.692s-0.693 3.438-1.947 4.692c-1.726 1.726-4.234 2.006-6.683 2.006zM3.452 29.035c2.228 0.044 4.633 0.044 5.798-1.121 0.693-0.693 1.077-1.623 1.077-2.611s-0.384-1.903-1.077-2.611c-1.387-1.402-3.821-1.402-5.223 0-0.575 0.575-0.575 1.608-0.502 3.246 0.044 0.974 0.089 2.021-0.074 3.083z"></path>
      <path d="M13.19 24.727c-0.723 0-1.446-0.177-2.095-0.531-0.575-0.31-1.003-0.752-1.815-1.549-0.797-0.797-1.239-1.239-1.549-1.815-0.738-1.357-0.708-3.024 0.089-4.352 0.325-0.561 0.782-0.974 1.608-1.741l14.562-13.47c1.874-1.726 4.751-1.682 6.55 0.118s1.859 4.677 0.118 6.55l-13.485 14.562c-0.767 0.826-1.195 1.284-1.756 1.608-0.693 0.413-1.475 0.62-2.242 0.62zM27.205 2.951c-0.428 0-0.87 0.162-1.21 0.472l-14.562 13.485c-0.59 0.546-0.974 0.9-1.077 1.077-0.266 0.443-0.266 1.003-0.030 1.446 0.103 0.192 0.502 0.575 1.033 1.121v0c0.546 0.546 0.929 0.929 1.121 1.033 0.457 0.251 1.003 0.236 1.446-0.029 0.192-0.118 0.546-0.487 1.077-1.077l13.485-14.562c0.649-0.708 0.634-1.785-0.044-2.464-0.354-0.354-0.797-0.516-1.254-0.516z"></path>
    </symbol>
    <symbol id="icon-Arrow" viewBox="0 0 65 32">
      <path d="M2.172 13.817c-1.195 0-2.172 0.978-2.172 2.172s0.978 2.172 2.172 2.172v-4.345zM64.543 17.532c0.847-0.847 0.847-2.216 0-3.063l-13.838-13.838c-0.847-0.847-2.216-0.847-3.063 0s-0.847 2.216 0 3.063l12.296 12.296-12.296 12.296c-0.847 0.847-0.847 2.216 0 3.063s2.216 0.847 3.063 0l13.817-13.817zM2.172 18.162h60.828v-4.345h-60.828v4.345z"></path>
    </symbol>
  </defs>
</svg>